<svg xmlns="http://www.w3.org/2000/svg" viewBox="0 0 512 512">
  <!-- Fondo circular -->
  <circle cx="256" cy="256" r="240" fill="#2E7D32"/>

  <!-- Hoja superior -->
  <path d="M256 50c40 40 40 90 0 130-40-40-40-90 0-130z" fill="#66BB6A"/>

  <!-- Sol -->
  <circle cx="370" cy="150" r="40" fill="#FFB300"/>

  <!-- Ave estilizada -->
  <path d="M180 190c30-10 60 10 70 30-30 0-60 10-90-10 5-10 10-15 20-20z" fill="#FFFFFF"/>

  <!-- Mar / líneas de agua -->
  <path d="M120 300c40 0 80 0 120-10 40-10 80-30 120-10v20c-40-20-80 0-120 10-40 10-80 10-120 0z" fill="#0288D1"/>

  <!-- Árbol estilizado -->
  <path d="M340 340c-30-10-60 20-40 60 20 40 60 40 80 20 20-20 20-60-40-80z" fill="#6D4C41"/>

  <!-- Giraffa / figura curva -->
  <path d="M200 400c0-40 40-60 60-40 20 20 20 60 0 80s-60 0-60-40z" fill="#8D6E63"/>
</svg>
